<?xml version="1.0" encoding="utf-8"?>
<!-- Generator: Adobe Illustrator 16.0.0, SVG Export Plug-In . SVG Version: 6.00 Build 0)  -->
<!DOCTYPE svg PUBLIC "-//W3C//DTD SVG 1.1//EN" "http://www.w3.org/Graphics/SVG/1.1/DTD/svg11.dtd">
<svg version="1.1" id="OBJECTS" xmlns="http://www.w3.org/2000/svg" xmlns:xlink="http://www.w3.org/1999/xlink" x="0px" y="0px"
	 width="1521.36px" height="1521.363px" viewBox="0 0 1521.36 1521.363" enable-background="new 0 0 1521.36 1521.363"
	 xml:space="preserve">
<path opacity="0.31" fill="#E1E6FD" d="M860.894,1480.916c324.813-66.747,559.393-290.333,584.886-538.781
	c4.177-40.661,21.854-212.907-82.205-335.491c-115.271-135.801-289.377-103.97-388.188-269.174
	c-45.317-75.761-37.503-89.896-65.055-144.079C808.634-6.571,352.661,8.983,343.776,346.699
	c-1.594,60.504,8.579,74.124-11.109,148.859C297.478,629.111,186.603,647.517,110.485,753.28
	c-116.687,162.146-92.958,447.951,48.877,588.775c63.175,62.725,134.84,81.852,244.402,111.094
	C595.462,1504.317,760.173,1494.604,860.894,1480.916z"/>
<image overflow="visible" opacity="0.1" width="477" height="358" xlink:href="E819777B.png"  transform="matrix(1.0379 0 0 1.0379 125.0854 323.0894)">
</image>
<g>
	<path fill="#FFFFFF" d="M525.72,616.704H194.488c-9.147,0-16.559-7.414-16.559-16.567V392.39c0-9.146,7.412-16.564,16.559-16.564
		H525.72c9.146,0,16.559,7.419,16.559,16.564v207.746C542.279,609.29,534.866,616.704,525.72,616.704z"/>
</g>
<path fill="#E1E6FD" d="M525.72,375.826H194.488c-9.147,0-16.559,7.419-16.559,16.564v26.865h364.349V392.39
	C542.279,383.245,534.866,375.826,525.72,375.826z"/>
<path fill="#F05931" d="M212.982,397.547c0,2.994-2.434,5.425-5.429,5.425c-2.995,0-5.431-2.431-5.431-5.425
	c0-3.001,2.436-5.43,5.431-5.43C210.549,392.118,212.982,394.546,212.982,397.547z"/>
<path fill="#F05931" d="M238.931,397.547c0,2.994-2.436,5.425-5.432,5.425c-2.994,0-5.429-2.431-5.429-5.425
	c0-3.001,2.436-5.43,5.429-5.43C236.495,392.118,238.931,394.546,238.931,397.547z"/>
<path fill="#F05931" d="M264.877,397.547c0,2.994-2.436,5.425-5.43,5.425c-3.002,0-5.432-2.431-5.432-5.425
	c0-3.001,2.43-5.43,5.432-5.43C262.442,392.118,264.877,394.546,264.877,397.547z"/>
<g>
	<path fill="#E1E6FD" d="M308.116,462.074c54.71,0,109.428,0,164.138,0c3.48,0,3.487-5.405,0-5.405c-54.71,0-109.428,0-164.138,0
		C304.635,456.668,304.63,462.074,308.116,462.074L308.116,462.074z"/>
</g>
<g>
	<path fill="#E1E6FD" d="M308.116,478.277c54.71,0,109.428,0,164.138,0c3.48,0,3.487-5.414,0-5.414c-54.71,0-109.428,0-164.138,0
		C304.635,472.863,304.63,478.277,308.116,478.277L308.116,478.277z"/>
</g>
<g>
	<path fill="#E1E6FD" d="M301.404,523.17c54.709,0,109.428,0,164.138,0c3.48,0,3.487-5.404,0-5.404c-54.71,0-109.429,0-164.138,0
		C297.925,517.766,297.917,523.17,301.404,523.17L301.404,523.17z"/>
</g>
<g>
	<path fill="#E1E6FD" d="M357.895,539.18c35.882,0,71.764,0,107.646,0c3.48,0,3.487-5.405,0-5.405c-35.883,0-71.765,0-107.646,0
		C354.418,533.775,354.414,539.18,357.895,539.18L357.895,539.18z"/>
</g>
<g opacity="0.05">
	<g>
		
			<image overflow="visible" opacity="0.1" width="477" height="358" xlink:href="E8197779.png"  transform="matrix(1.0379 0 0 1.0379 572.7573 303.9136)">
		</image>
		<g>
			<path fill="none" stroke="#F05931" stroke-miterlimit="10" d="M973.396,597.522H642.16c-9.146,0-16.559-7.404-16.559-16.559
				V373.219c0-9.146,7.412-16.564,16.559-16.564h331.236c9.146,0,16.563,7.418,16.563,16.564v207.744
				C989.958,590.118,982.542,597.522,973.396,597.522z"/>
		</g>
	</g>
	<path fill="#F05931" d="M973.396,356.655H642.16c-9.146,0-16.559,7.418-16.559,16.564v26.863h364.357v-26.863
		C989.958,364.073,982.542,356.655,973.396,356.655z"/>
	<path fill="#F05931" d="M660.655,378.376c0,2.997-2.426,5.423-5.429,5.423c-2.997,0-5.426-2.426-5.426-5.423
		c0-3.003,2.429-5.432,5.426-5.432C658.229,372.945,660.655,375.374,660.655,378.376z"/>
	<path fill="#F05931" d="M686.603,378.376c0,2.997-2.43,5.423-5.431,5.423c-2.995,0-5.425-2.426-5.425-5.423
		c0-3.003,2.43-5.432,5.425-5.432C684.173,372.945,686.603,375.374,686.603,378.376z"/>
	<path fill="#F05931" d="M712.549,378.376c0,2.997-2.428,5.423-5.431,5.423c-2.995,0-5.423-2.426-5.423-5.423
		c0-3.003,2.428-5.432,5.423-5.432C710.122,372.945,712.549,375.374,712.549,378.376z"/>
	<g>
		<path fill="#F05931" d="M755.787,442.903c54.715,0,109.428,0,164.146,0c3.48,0,3.483-5.407,0-5.407c-54.718,0-109.431,0-164.146,0
			C752.309,437.496,752.309,442.903,755.787,442.903L755.787,442.903z"/>
	</g>
	<g>
		<path fill="#F05931" d="M755.787,459.097c54.715,0,109.428,0,164.146,0c3.48,0,3.483-5.405,0-5.405c-54.718,0-109.431,0-164.146,0
			C752.309,453.692,752.309,459.097,755.787,459.097L755.787,459.097z"/>
	</g>
	<g>
		<path fill="#F05931" d="M749.077,503.999c54.713,0,109.426,0,164.143,0c3.481,0,3.485-5.405,0-5.405c-54.717,0-109.43,0-164.143,0
			C745.594,498.593,745.594,503.999,749.077,503.999L749.077,503.999z"/>
	</g>
	<g>
		<path fill="#F05931" d="M805.571,520.007c35.882,0,71.764,0,107.648,0c3.481,0,3.485-5.405,0-5.405c-35.885,0-71.767,0-107.648,0
			C802.092,514.602,802.083,520.007,805.571,520.007L805.571,520.007z"/>
	</g>
</g>
<image overflow="visible" opacity="0.1" width="477" height="358" xlink:href="E819777F.png"  transform="matrix(1.0379 0 0 1.0379 483.1587 35.7397)">
</image>
<g>
	<path fill="#FFFFFF" d="M883.793,329.354H552.565c-9.145,0-16.563-7.412-16.563-16.562V105.046c0-9.146,7.418-16.562,16.563-16.562
		h331.229c9.146,0,16.562,7.416,16.562,16.562v207.747C900.355,321.942,892.939,329.354,883.793,329.354z"/>
</g>
<path fill="#E1E6FD" d="M883.793,88.484H552.565c-9.145,0-16.563,7.416-16.563,16.562v26.863h364.353v-26.863
	C900.355,95.9,892.939,88.484,883.793,88.484z"/>
<path fill="#F05931" d="M571.057,110.195c0,3.001-2.43,5.432-5.424,5.432c-3.003,0-5.432-2.431-5.432-5.432
	c0-2.994,2.429-5.426,5.432-5.426C568.627,104.769,571.057,107.201,571.057,110.195z"/>
<path fill="#F05931" d="M597.003,110.195c0,3.001-2.429,5.432-5.432,5.432c-2.995,0-5.422-2.431-5.422-5.432
	c0-2.994,2.427-5.426,5.422-5.426C594.575,104.769,597.003,107.201,597.003,110.195z"/>
<path fill="#F05931" d="M622.95,110.195c0,3.001-2.427,5.432-5.43,5.432c-2.996,0-5.426-2.431-5.426-5.432
	c0-2.994,2.43-5.426,5.426-5.426C620.523,104.769,622.95,107.201,622.95,110.195z"/>
<g>
	<path fill="#E1E6FD" d="M561.764,174.727c54.716,0,109.426,0,164.145,0c3.479,0,3.485-5.405,0-5.405c-54.719,0-109.429,0-164.145,0
		C558.29,169.322,558.283,174.727,561.764,174.727L561.764,174.727z"/>
</g>
<g>
	<path fill="#E1E6FD" d="M561.764,190.922c54.716,0,109.426,0,164.145,0c3.479,0,3.485-5.405,0-5.405c-54.719,0-109.429,0-164.145,0
		C558.29,185.517,558.283,190.922,561.764,190.922L561.764,190.922z"/>
</g>
<g>
	<path fill="#E1E6FD" d="M659.476,235.825c54.716,0,109.426,0,164.147,0c3.476,0,3.485-5.408,0-5.408c-54.722,0-109.432,0-164.147,0
		C656.002,230.417,655.998,235.825,659.476,235.825L659.476,235.825z"/>
</g>
<g>
	<path fill="#E1E6FD" d="M715.971,251.833c35.884,0,71.768,0,107.652,0c3.476,0,3.485-5.405,0-5.405c-35.885,0-71.769,0-107.652,0
		C712.491,246.427,712.485,251.833,715.971,251.833L715.971,251.833z"/>
</g>
<image overflow="visible" opacity="0.1" width="477" height="358" xlink:href="E8197778.png"  transform="matrix(1.4443 0 0 1.0379 780.3706 185.6699)">
</image>
<g>
	<path fill="#FFFFFF" d="M1337.891,479.282H876.955c-12.726,0-23.047-7.419-23.047-16.559V254.971
		c0-9.146,10.321-16.559,23.047-16.559h460.937c12.729,0,23.047,7.412,23.047,16.559v207.752
		C1360.938,471.863,1350.62,479.282,1337.891,479.282z"/>
</g>
<path fill="#E1E6FD" d="M1337.891,238.413H876.955c-12.726,0-23.047,7.412-23.047,16.559v26.868h507.03v-26.868
	C1360.938,245.825,1350.62,238.413,1337.891,238.413z"/>
<g>
	<path fill="#F05931" d="M898.44,260.125c0,2.997-2.435,5.431-5.428,5.431c-2.997,0-5.434-2.434-5.434-5.431
		c0-3,2.437-5.429,5.434-5.429C896.005,254.697,898.44,257.125,898.44,260.125z"/>
	<circle fill="#F05931" cx="921.34" cy="260.125" r="5.427"/>
	<path fill="#F05931" d="M955.096,260.125c0,2.997-2.432,5.431-5.432,5.431c-2.997,0-5.425-2.434-5.425-5.431
		c0-3,2.428-5.429,5.425-5.429C952.665,254.697,955.096,257.125,955.096,260.125z"/>
</g>
<g>
	<path fill="#E1E6FD" d="M1013.761,324.657c76.144,0,152.278,0,228.425,0c4.835,0,4.845-5.404,0-5.404
		c-76.146,0-152.281,0-228.425,0C1008.918,319.252,1008.911,324.657,1013.761,324.657L1013.761,324.657z"/>
</g>
<g>
	<path fill="#E1E6FD" d="M1013.761,340.848c76.144,0,152.278,0,228.425,0c4.835,0,4.845-5.402,0-5.402
		c-76.146,0-152.281,0-228.425,0C1008.918,335.446,1008.911,340.848,1013.761,340.848L1013.761,340.848z"/>
</g>
<g>
	<path fill="#E1E6FD" d="M914.781,385.751c76.147,0,152.283,0,228.426,0c4.841,0,4.851-5.405,0-5.405c-76.143,0-152.278,0-228.426,0
		C909.947,380.346,909.937,385.751,914.781,385.751L914.781,385.751z"/>
</g>
<g>
	<path fill="#E1E6FD" d="M967.293,401.76c49.935,0,99.868,0,149.806,0c4.841,0,4.851-5.405,0-5.405c-49.938,0-99.871,0-149.806,0
		C962.456,396.355,962.443,401.76,967.293,401.76L967.293,401.76z"/>
</g>
<g>
	<path fill="#E1E6FD" d="M1162.808,444.386c49.937,0,99.874,0,149.811,0c4.838,0,4.843-5.405,0-5.405c-49.937,0-99.874,0-149.811,0
		C1157.972,438.981,1157.965,444.386,1162.808,444.386L1162.808,444.386z"/>
</g>
<g>
	<g>
		<path fill="#E1E6FD" d="M1249.094,1300.961l6.43-7.79c0.193-0.229,18.599-23.082,16.738-69.571l-0.035-0.851
			c-1.916-47.913-7.754-193.726,160.013-281.966l6.741-3.557l-2.784,7.102c-0.352,0.898-35.315,90.33-40.396,136.47l-0.554,5.097
			c-6.495,59.788-18.579,171.055-136.61,211.771L1249.094,1300.961z M1428.151,949.418
			c-157.713,86.9-152.108,226.722-150.254,273.104l0.036,0.854c1.355,33.812-7.426,55.523-13.224,66.023
			c107.251-41.744,118.683-146.964,124.891-204.114l0.554-5.107C1394.533,1040.485,1419.665,971.811,1428.151,949.418z"/>
	</g>
	<g>
		<path fill="#E1E6FD" d="M1269.046,1292.127l-4.311-3.698c0.553-0.642,55.421-65.517,66.73-149.619
			c15.895-118.244,99.318-196.813,100.16-197.597l3.854,4.157c-0.821,0.769-82.778,78.029-98.394,194.196
			C1325.551,1225.375,1269.603,1291.469,1269.046,1292.127z"/>
	</g>
	<g>
		<path fill="#E1E6FD" d="M1245.072,1298.105l-9.496-3.269c-81.206-28.02-89.504-104.418-93.952-145.472l-0.383-3.485
			c-3.47-31.423-27.318-92.422-27.559-93.035l-2.783-7.092l6.748,3.547c115.154,60.57,111.148,160.643,109.828,193.53l-0.02,0.569
			c-1.262,31.367,11.107,46.792,11.229,46.949L1245.072,1298.105z M1121.717,1057.975c6.496,17.294,22.297,61.303,25.164,87.284
			l0.383,3.497c4.178,38.458,11.826,108.921,82.537,137.846c-3.936-7.911-8.871-22.253-8.022-43.427l0.026-0.575
			C1223.06,1211.251,1226.817,1117.174,1121.717,1057.975z"/>
	</g>
	<g>
		<path fill="#E1E6FD" d="M1228.126,1288.258c-1.581-1.739-38.849-43.245-46.766-102.203
			c-10.627-79.041-66.404-131.643-66.965-132.169l3.862-4.157c0.573,0.535,57.821,54.455,68.724,135.58
			c7.675,57.133,44.965,98.715,45.345,99.124L1228.126,1288.258z"/>
	</g>
	<g>
		<path fill="#E1E6FD" d="M1246.167,1299.805l-2.578-2.957c-65.924-75.626-82.992-189.032-52.176-346.702
			c16.743-85.721,51.556-104.29,53.03-105.034l8.857-4.5l-5.143,8.497c-22.904,37.831-14.698,126.14,21.416,230.454
			c39.104,112.98-20.791,215.847-21.403,216.875L1246.167,1299.805z M1237.699,857.872c-11.227,11.483-29.9,37.952-40.718,93.369
			c-30.036,153.68-14.265,264.564,48.234,338.783c9.909-18.752,53.203-109.771,18.989-208.609
			C1230.833,985,1221.203,901.631,1237.699,857.872z"/>
	</g>
	<g>
		<path fill="#E1E6FD" d="M1242.968,1289.628c-3.18-13.212-77.075-325.04,0.383-443.54l4.757,3.103
			c-76.119,116.456-0.399,435.89,0.381,439.106L1242.968,1289.628z"/>
	</g>
	<g>
		<path fill="#CED6EF" d="M1284.894,1420.185l-80.506-0.767c-3.548-0.029-6.515-2.695-6.94-6.22l-13.887-116.341
			c-0.503-4.203,2.779-7.893,7.007-7.893h110.33c4.272,0,7.564,3.774,6.987,8.003l-15.929,117.111
			C1291.471,1417.604,1288.452,1420.215,1284.894,1420.185z"/>
	</g>
</g>
<g>
	<path fill="#E1E6FD" d="M802.45,1014.24H384.462c-2.625,0-4.774-1.11-4.774-2.47l0,0c0-1.36,2.149-2.47,4.774-2.47H802.45
		c2.627,0,4.773,1.109,4.773,2.47l0,0C807.223,1013.129,805.077,1014.24,802.45,1014.24z"/>
	<path fill="#E1E6FD" d="M499.598,1043.067H322.296c-1.111,0-2.024-1.11-2.024-2.468l0,0c0-1.364,0.913-2.475,2.024-2.475h177.302
		c1.116,0,2.03,1.11,2.03,2.475l0,0C501.628,1041.957,500.714,1043.067,499.598,1043.067z"/>
</g>
<g>
	<path fill="#F05931" d="M1131.563,1263.317c-5.679-8.965-23.001-9.846-31.497-11.182c-3.555-0.564-7.122-1.042-10.698-1.508
		c-12.13-56.561-27.902-112.502-44.323-166.973c-1.51-5.018-9.389-2.883-7.864,2.166c16.093,53.408,31.626,108.313,43.658,163.805
		c-28.657-3.131-57.765-3.58-86.448-3.41c-5.408,0.036-30.647-0.891-57.154,0.239c11.94-54.416,27.191-108.237,42.978-160.634
		c1.522-5.035-6.349-7.187-7.865-2.166c-16.055,53.262-31.498,107.95-43.518,163.232c-30.513,1.834-60.104,6.8-60.616,19.484
		c-0.45,11.144,25.197,16.171,52.962,18.421c-7.253,39.109-12.5,78.417-14.676,117.661c-0.291,5.244,7.871,5.232,8.16,0
		c2.162-39.025,7.406-78.149,14.662-117.067c27.174,1.686,54.146,1.041,58.889,1.097c33.01,0.383,66.443-0.193,99.299-4.199
		c7.563,39.952,13.001,80.112,15.221,120.17c0.296,5.219,8.452,5.254,8.16,0c-2.24-40.427-7.708-80.924-15.307-121.188
		c0.259-0.04,0.511-0.063,0.77-0.1c9.251-1.317,29.899-1.949,35.652-12.182c0.672-0.652,1.031-1.536,0.931-2.613
		C1133.057,1265.054,1132.528,1263.976,1131.563,1263.317z M923.049,1274.963c-22.749-1.855-41.414-4.61-40.703-8.592
		c1.177-6.545,21.27-9.667,44.693-11.105C925.654,1261.828,924.33,1268.392,923.049,1274.963z M1073.401,1275.529
		c-24.203,2.13-48.548,2.88-72.837,2.87c-6.05-0.007-39.546-0.714-69.358-2.813c1.353-6.925,2.758-13.849,4.232-20.758
		c27.853-1.235,57.69-0.492,65.126-0.492c22.694,0.017,45.431,0.632,68.062,2.458c2.228,0.177,7.485,0.333,13.896,0.68
		c1.216,5.776,2.385,11.563,3.519,17.349C1079.883,1275.219,1074.981,1275.389,1073.401,1275.529z M1094.192,1274.19
		c-1.051-5.392-2.122-10.784-3.246-16.169c13.905,1.078,29.416,3.289,33.218,8.343
		C1120.614,1270.845,1106.698,1273.053,1094.192,1274.19z"/>
	<g>
		<g>
			<path fill="#324893" d="M959.037,943.101l-147.513,40.713c0,0-71.191,13.014-79.241,56.238
				c-8.057,43.22-23.055,230.662-31.384,255.178c-8.33,24.521-17.775,61.804-18.886,70.996c-1.115,9.194-16.665,17.875,0,17.875
				c16.66,0,18.331-21.452,24.991-33.198c6.668-11.747,23.333-31.152,33.883-39.84c10.554-8.68,13.33-9.293,2.223-40.395
				c-11.109-31.105,5.002-66.862,13.335-87.804c8.329-20.938,32.205-63.94,23.868-111.44
				c-8.328-47.498,168.382-28.256,168.382-28.256"/>
			<path fill="#2C4384" d="M1090.38,943.101c0,0,19.319,77.206-49.267,105.53c-68.582,28.332-242.464-23.539-235.65,4.309
				c5.149,21.031,30.828,21.661,60.41,62.072c28.125,38.43,46.733,105.08,46.733,105.08s14.648,31.001,24.08,34.336
				c9.433,3.33,13.41,10,6.743,20.271c-6.669,10.277-23.364,15.957-31.262,33.95c-7.893,17.983-4.833,22.432-21.499,34.372
				c-16.659,11.941-12.219,5.001-5.549-9.166c6.659-14.165,4.442-31.106,9.166-52.214c4.713-21.104,4.517-39.989-28.85-81.371
				c-33.365-41.384-86.636-84.842-111.63-133.58c-23.928-46.666-4.813-59.162,56.026-80.827
				c60.845-21.655,143.935-35.403,143.935-35.403"/>
		</g>
		<path fill="#E5C7C1" d="M956.416,594.942c0,0-13.883-1.943-17.771,15.277c-3.892,17.214,1.389,19.441,2.771,26.654
			c1.393,7.229-4.18,13.615-4.18,13.615s-0.956,2.36,8.35,2.844c0,0,4.996,14.649,7.636,18.328
			c2.637,3.684,18.328-1.249,33.123-12.771c0,0,7.636-4.095,8.472-18.474c0,0,7.292-9.368,7.187-17.494
			c-0.107-8.122-9.07-6.661-11.566-2.286C987.94,625.006,998.835,596.333,956.416,594.942z"/>
		<g>
			<path fill="#E5C7C1" d="M890.581,902.134c0,0-43.035-8.221-64.276-8.221c-21.25,0-65.406,2.495-79.567,22.912
				c0,0-8.056,9.86-1.116,11.524c0,0,1.944-1.248,6.95-5.693c4.992-4.438,7.633-6.525,14.575-4.864
				c6.942,1.674,25.972,11.805,31.944,2.368c5.964-9.446,4.719-6.809,21.241-4.582c16.525,2.214,67.069,14.713,67.069,14.713"/>
			<path fill="#E5C7C1" d="M896.704,906.827c0,0-21.104-42.214,4.445-114.973c25.553-72.765,36.061-88.873,36.061-88.873
				s10.342-32.633,20.595-32.873c10.255-0.25,23.889-1.568,22.218,10.094c-1.664,11.664-11.941,18.894-10.416,11.664
				c1.529-7.213-6.246-11.104-6.246-4.435c0,6.658,0,14.302-6.109,17.974c-6.106,3.682-6.83,5.354-9.522,19.233
				c-2.695,13.885-9.641,77.764-13.394,85.539C930.59,817.958,896.704,906.827,896.704,906.827z"/>
			<g>
				<path fill="#EABB71" d="M939.847,781.032c0,0-19.553,12.479-34.958,0.268c0,0-68.365,86.697-7.072,138.306
					C959.111,971.206,1009.837,824.22,939.847,781.032z"/>
				<g>
					<path fill="#CCA36D" d="M912.83,898.174c-4.546-17.679-5.578-35.281-1.973-53.216c2.298-11.445,5.808-22.307,6.258-34.08
						c0.052-1.333-2.012-1.323-2.064,0c-0.605,15.668-6.542,30.202-8.042,45.735c-1.392,14.347,0.26,28.223,3.829,42.111
						C911.166,900.006,913.165,899.465,912.83,898.174L912.83,898.174z"/>
				</g>
				<g>
					<path fill="#CCA36D" d="M939.622,887.418c8.916-17.221,5.817-35.726-0.342-53.335c-0.438-1.255-2.332-0.419-1.889,0.829
						c5.984,17.117,9.008,34.94,0.316,51.735C937.096,887.828,939.014,888.59,939.622,887.418L939.622,887.418z"/>
				</g>
			</g>
			<path fill="#D8B9B4" d="M980.022,657.709c0,0,11.519,7.871,13.542,20.617c1.18,7.433-2.293,27.078-2.293,27.078
				s25.203-14.162,37.074-29.574c11.874-15.413-32.904-41.032-32.904-41.032L980.022,657.709z"/>
			<path fill="#F05931" d="M981.111,626.918l-0.538-1.543l-26.166,9.015c-0.599-4.805-3.315-8.337-6.679-8.337
				c-3.818,0-6.807,4.543-6.807,10.349c0,5.799,2.988,10.351,6.807,10.351c3.815,0,6.804-4.552,6.804-10.351
				c0-0.114-0.02-0.216-0.02-0.318L981.111,626.918z M947.728,645.12c-2.807,0-5.179-3.996-5.179-8.718
				c0-4.73,2.372-8.718,5.179-8.718c2.804,0,5.176,3.987,5.176,8.718C952.904,641.124,950.532,645.12,947.728,645.12z"/>
			<g>
				<path fill="#FFD47C" d="M1028.345,663.159c0,0-31.882,28.821-36.556,38.553c-4.685,9.734-47.195,68.059-39.482,99.305
					c7.721,31.247,15.635,54.571,5.222,72.07c-10.413,17.492-14.17,34.156-14.17,34.156s72.489,71.657,112.482,72.485
					c39.995,0.836,91.652-91.229,66.239-167.887C1096.671,735.191,1080.838,687.776,1028.345,663.159z"/>
				<g>
					<path fill="#F4C778" d="M1040.845,722.28c0,0-20.493,2.921-35.661,23.748c-15.161,20.829-25.996,87.06-35.578,109.977
						c-9.578,22.913-53.32,53.321-85.396,44.99l-6.248,27.908c0,0,29.157,45.827,107.063,43.327
						c77.897-2.495,116.639-94.147,102.481-164.552C1073.336,737.276,1070.004,729.362,1040.845,722.28z"/>
					<g>
						<path fill="#CCA36D" d="M883.48,920.007c18.196,12.237,44.319,12.489,65.584,13.075c21.915,0.606,44.916-0.56,65.363-9.24
							c15.942-6.768,30.82-18.419,38.481-34.295c9.329-19.343,6.497-41.887,8.956-62.615c0.16-1.316-1.906-1.31-2.063,0
							c-2.404,20.225,0.459,42.719-8.678,61.576c-8.582,17.718-26.041,29.795-44.257,35.978
							c-18.426,6.256-38.516,7.062-57.803,6.533c-21.301-0.579-46.291-0.52-64.545-12.798
							C883.42,917.485,882.379,919.27,883.48,920.007L883.48,920.007z"/>
					</g>
					<g>
						<path fill="#CCA36D" d="M884.17,915.922c32.682,6.431,66.827,5.716,96.642-10.688c26.653-14.665,37.771-33.641,37.821-63.622
							c0.007-1.331-2.057-1.331-2.066,0c-0.057,32.818-16.052,53.143-45.884,66.124c-27.427,11.943-57.009,11.888-85.968,6.198
							C883.423,913.675,882.865,915.667,884.17,915.922L884.17,915.922z"/>
					</g>
				</g>
				<g>
					<path fill="#CCA36D" d="M1033.762,973.501c81.793-10.983,63.41-109.476,66.785-168.225c0.074-1.316-1.963-1.649-2.042-0.32
						c-3.347,58.243,14.972,155.757-64.978,166.491C1032.217,971.625,1032.443,973.678,1033.762,973.501L1033.762,973.501z"/>
				</g>
			</g>
			<g>
				<path fill="#F05931" d="M931.334,614.186c0,0-9.504-5.611-7.84-22.824c1.714-17.713,18.756-40.855,57.643-47.241
					c38.877-6.394,66.089,7.106,87.485,26.522c22.483,20.4,45.819,34.722,74.982,30.896c29.157-3.822,71.229-12.566,106.229,16.179
					c34.99,28.74,55.82,99.877-48.738,122.893c-117.49,25.852-163.592-60.241-163.592-60.241s-19.291-38.493-54.291-31.411
					c0,0,9.719-9.444,7.918-18.469c-1.805-9.026-9.025-2.359-11.807,0.975c0,0-3.885-12.5-12.218-13.606
					C958.778,616.745,939.715,623.298,931.334,614.186z"/>
				<g>
					<path fill="#E87C67" d="M935.694,616.582c8.17-25.596,22.543-42.025,51.375-41.557c19.971,0.321,38.679,9.625,52.139,24.171
						c19.794,21.383,28.878,48.672,55.181,63.963c21.904,12.733,48.689,21.197,73.533,12.472
						c32.186-11.302,43.56-48.991,76.577-58.783c1.268-0.382,0.727-2.37-0.547-1.993c-36.914,10.943-48.474,55.521-88.605,61.484
						c-25.057,3.717-54.967-8.062-73.805-24.742c-14.657-12.975-23.094-31.203-34.872-46.526
						c-15.687-20.411-39.157-33.831-65.539-31.962c-27.087,1.917-39.662,18.604-47.432,42.926
						C933.295,617.292,935.284,617.841,935.694,616.582L935.694,616.582z"/>
				</g>
				<g>
					<path fill="#E87C67" d="M990.61,632.018c36.857-10.676,55.352,27.598,74.266,51.174c13.2,16.469,30.355,28.666,50.215,35.861
						c20.179,7.304,43.377,9.849,64.348,4.486c29.405-7.507,58.584-45.957,90.083-25.168c1.113,0.734,2.149-1.05,1.044-1.777
						c-18.107-11.957-36.79-4.627-53.887,5.718c-19.369,11.721-35.56,21.46-58.962,21.881c-18.586,0.34-37.185-3.935-53.844-12.149
						c-29.842-14.722-41.739-41.427-63.218-64.481c-13.387-14.359-31.047-23.199-50.596-17.531
						C988.786,630.397,989.327,632.385,990.61,632.018L990.61,632.018z"/>
				</g>
				<g>
					<path fill="#E87C67" d="M1086.78,588.268c-2.552,42.896,82.654,53.328,75.768,11.104c-0.216-1.3-2.203-0.751-1.997,0.549
						c5.98,36.664-74.16,29.665-71.704-11.652C1088.922,586.945,1086.854,586.945,1086.78,588.268L1086.78,588.268z"/>
				</g>
			</g>
		</g>
	</g>
	<path fill="#F05931" d="M855.872,1070.022c0,0,9.102-29.743,104.117-25.285c95.01,4.448,111.396-32.203,129.729-76.086
		c18.33-43.885,34.991-188.295,62.205-198.299c27.224-9.997,5.002,204.404-19.44,256.062
		c-24.435,51.656-63.44,68.457-144.139,77.351C907.651,1112.647,854.208,1084.739,855.872,1070.022z"/>
</g>
<g>
	<g>
		<g>
			<path fill="#E1E6FD" d="M455.235,858.917c-78.789-27.185-86.857-101.453-91.184-141.364l-0.377-3.406
				c-3.391-30.795-26.725-90.49-26.968-91.092l-1.854-4.741l4.499,2.372c111.989,58.904,108.09,156.229,106.815,188.219
				l-0.025,0.567c-1.243,31.026,11.046,46.291,11.172,46.435l4.29,5.202L455.235,858.917z M367.448,713.742l0.368,3.402
				c4.144,38.15,11.771,108.388,83.366,136.253c-3.87-7.01-9.731-21.505-8.827-44.08l0.026-0.562
				c1.236-30.96,4.977-124.297-100.301-182.301C347.746,641.4,364.527,687.238,367.448,713.742z"/>
		</g>
		<g>
			<path fill="#E1E6FD" d="M448.289,855.214l2.874-2.469c-0.362-0.431-36.998-43.737-44.545-99.871
				c-10.604-78.93-66.289-131.38-66.857-131.903l-2.575,2.78c0.556,0.511,55.26,52.084,65.679,129.623
				C410.572,810.653,447.913,854.773,448.289,855.214z"/>
		</g>
		<g>
			<path fill="#E1E6FD" d="M468.557,854.019c0.074-0.101,8.336-10.399,7.496-31.331l-0.016-0.381
				c-0.885-21.952-3.556-88.749,73.312-129.186l4.504-2.364l-1.859,4.733c-0.16,0.409-16.081,41.122-18.396,62.1l-0.253,2.332
				c-2.971,27.391-8.509,78.397-62.716,97.101l-6.337,2.188L468.557,854.019z M479.818,822.154l0.021,0.383
				c0.567,14.139-2.729,23.71-5.355,28.986c47.203-19.307,52.31-66.345,55.094-92.016l0.256-2.326
				c1.918-17.349,12.459-46.726,16.799-58.269C476.472,738.427,478.986,801.229,479.818,822.154z"/>
		</g>
		<g>
			<path fill="#E1E6FD" d="M475.607,852.633c1.051-1.162,25.926-28.875,31.209-68.225c7.1-52.758,44.327-87.878,44.699-88.221
				l-2.573-2.78c-0.384,0.355-38.595,36.356-45.879,90.506c-5.123,38.14-30.013,65.888-30.263,66.172L475.607,852.633z"/>
		</g>
		<g>
			<path fill="#E1E6FD" d="M462.219,858.088c-0.405-0.682-40.387-69.344-14.28-144.763c24.098-69.631,29.579-128.58,14.289-153.833
				l-3.429-5.672l5.907,3.002c0.988,0.497,24.227,12.886,35.404,70.115c20.568,105.246,9.172,180.943-34.829,231.431l-1.721,1.976
				L462.219,858.088z M451.52,714.562c-22.842,65.972,6.062,126.731,12.679,139.251c41.712-49.544,52.241-123.563,32.191-226.148
				c-7.223-36.984-19.687-54.659-27.177-62.32C480.222,594.555,473.794,650.202,451.52,714.562z"/>
		</g>
		<g>
			<path fill="#E1E6FD" d="M465.695,853.55c2.123-8.82,51.447-216.966-0.254-296.077l-3.175,2.077
				c50.811,77.732,0.261,290.964-0.261,293.109L465.695,853.55z"/>
		</g>
		<g>
			<path fill="#CED6EF" d="M437.709,940.693l53.733-0.508c2.372-0.023,4.354-1.805,4.634-4.156l9.275-77.66
				c0.331-2.801-1.855-5.264-4.68-5.264h-73.646c-2.855,0-5.045,2.513-4.663,5.34l10.636,78.176
				C433.318,938.966,435.332,940.712,437.709,940.693z"/>
		</g>
	</g>
	<path fill="#E1E6FD" d="M873.105,952.796H281.117c-3.722,0-6.77-3.04-6.77-6.761l0,0c0-3.725,3.048-6.762,6.77-6.762h591.988
		c3.725,0,6.765,3.037,6.765,6.762l0,0C879.87,949.756,876.83,952.796,873.105,952.796z"/>
	<g>
		<path fill="#2C4384" d="M600.559,787.344c20.224,48.374,40.447,96.749,60.663,145.116c1.416,3.385,3.945,5.992,7.867,5.992
			c58.937,0,117.864,0,176.797,0c10.497,0,10.517-16.319,0-16.319c-26.242,0-52.477,0-78.714,0c-20.504,0-41.01,0-61.513,0
			c-9.326,0-25.762-3.306-34.609,0c-1.873,0.703,4.692,8.486,4.773,3.281c0.06-3.792-4.696-11.234-6.148-14.707
			c-6.864-16.428-13.729-32.848-20.593-49.266c-10.932-26.143-21.857-52.289-32.788-78.436
			C612.307,773.458,596.512,777.651,600.559,787.344L600.559,787.344z"/>
	</g>
</g>
<path fill="#E1E6FD" d="M1161.619,150.512c-4.135-0.948-8.262-1.89-12.394-2.836c-7.421-1.7-6.347-0.734-8.752-6.621
	c-3.548-8.708-1.623-8.415,3.79-13.313c3.368-3.053,8.272-5.187,12.146-7.618c0.466-0.292,0.682-0.934,0.378-1.422
	c-3.775-6.017-7.548-12.031-11.321-18.044c-0.292-0.464-0.938-0.679-1.422-0.373c-3.588,2.251-7.167,4.496-10.758,6.747
	c-6.512,4.086-4.998,3.958-10.924,1.447c-8.647-3.665-7.05-4.71-6.686-12.015c0.229-4.544,2.185-9.524,3.207-13.984
	c0.12-0.53-0.16-1.149-0.728-1.281c-6.915-1.583-13.836-3.167-20.75-4.751c-0.531-0.121-1.154,0.159-1.285,0.726
	c-0.946,4.131-1.894,8.258-2.843,12.389c-1.701,7.421-0.734,6.346-6.614,8.746c-8.713,3.557-8.421,1.626-13.321-3.78
	c-3.053-3.373-5.186-8.276-7.62-12.152c-0.287-0.462-0.934-0.679-1.417-0.374c-6.019,3.773-12.032,7.547-18.043,11.318
	c-0.465,0.292-0.682,0.936-0.378,1.422c2.252,3.588,4.502,7.176,6.753,10.762c4.081,6.517,3.957,4.997,1.446,10.924
	c-3.668,8.653-4.707,7.052-12.008,6.688c-4.554-0.228-9.532-2.184-13.993-3.207c-0.528-0.122-1.153,0.159-1.28,0.726
	c-1.583,6.919-3.165,13.838-4.747,20.759c-0.122,0.529,0.16,1.149,0.728,1.278c4.12,0.947,8.254,1.894,12.382,2.834
	c7.419,1.703,6.348,0.739,8.752,6.623c3.55,8.708,1.625,8.415-3.79,13.313c-3.367,3.053-8.271,5.187-12.146,7.619
	c-0.156,0.103-0.268,0.229-0.347,0.367c-0.203,0.285-0.269,0.661-0.02,1.054c3.768,6.014,7.541,12.028,11.312,18.045
	c0.287,0.466,0.929,0.68,1.422,0.374c3.579-2.25,7.17-4.499,10.756-6.75c6.516-4.083,4.998-3.958,10.928-1.447
	c8.647,3.668,7.046,4.715,6.687,12.015c-0.232,4.545-2.188,9.522-3.208,13.983c-0.12,0.529,0.158,1.149,0.725,1.278
	c6.924,1.588,13.847,3.174,20.761,4.763c0.531,0.12,1.153-0.161,1.28-0.729c0.943-4.131,1.891-8.256,2.837-12.385
	c1.7-7.419,0.733-6.352,6.617-8.754c8.704-3.559,8.419-1.623,13.313,3.784c3.057,3.369,5.185,8.274,7.622,12.15
	c0.288,0.465,0.934,0.679,1.422,0.372c6.017-3.773,12.024-7.547,18.045-11.316c0.465-0.293,0.683-0.938,0.371-1.424
	c-2.248-3.586-4.495-7.176-6.745-10.759c-4.082-6.51-3.95-5-1.448-10.924c3.666-8.649,4.711-7.049,12.015-6.687
	c4.544,0.23,9.522,2.183,13.984,3.207c0.53,0.121,1.147-0.159,1.274-0.726c1.589-6.923,3.174-13.84,4.759-20.763
	C1162.463,151.26,1162.185,150.641,1161.619,150.512z M1076.232,130.803c7.793-7.045,18.884-8.935,28.017-3.112
	c11.802,7.524,13.901,24.695,3.911,34.699C1087.896,182.695,1056.643,152.536,1076.232,130.803z"/>
<path opacity="0.07" fill="#F05931" d="M1412.454,590.181c-3.066-0.7-6.131-1.402-9.194-2.103c-5.516-1.262-4.71-0.539-6.495-4.906
	c-2.641-6.466-1.206-6.247,2.811-9.888c2.495-2.26,6.138-3.849,9.011-5.652c0.345-0.216,0.512-0.688,0.282-1.059
	c-2.801-4.46-5.604-8.922-8.402-13.383c-0.216-0.345-0.694-0.512-1.051-0.282c-2.667,1.668-5.324,3.339-7.986,5.012
	c-4.831,3.031-3.708,2.936-8.104,1.07c-6.421-2.717-5.239-3.494-4.963-8.912c0.166-3.376,1.617-7.068,2.378-10.374
	c0.095-0.397-0.115-0.854-0.534-0.956c-5.14-1.176-10.27-2.347-15.405-3.526c-0.396-0.089-0.856,0.121-0.954,0.542
	c-0.697,3.06-1.398,6.126-2.109,9.192c-1.257,5.506-0.541,4.708-4.907,6.486c-6.459,2.641-6.249,1.212-9.882-2.805
	c-2.264-2.497-3.85-6.144-5.65-9.013c-0.22-0.343-0.698-0.509-1.056-0.277c-4.467,2.798-8.929,5.594-13.39,8.397
	c-0.344,0.218-0.505,0.69-0.282,1.059c1.671,2.658,3.342,5.316,5.009,7.981c3.035,4.837,2.941,3.71,1.074,8.105
	c-2.719,6.423-3.488,5.232-8.91,4.958c-3.373-0.164-7.071-1.618-10.384-2.372c-0.391-0.094-0.846,0.117-0.943,0.537
	c-1.183,5.138-2.352,10.27-3.534,15.399c-0.086,0.393,0.121,0.854,0.547,0.956c3.066,0.699,6.125,1.403,9.191,2.104
	c5.504,1.263,4.707,0.549,6.49,4.907c2.639,6.46,1.209,6.246-2.808,9.879c-2.5,2.269-6.136,3.848-9.016,5.66
	c-0.12,0.074-0.196,0.166-0.259,0.269c-0.153,0.214-0.199,0.495-0.012,0.782c2.796,4.469,5.594,8.93,8.391,13.392
	c0.213,0.344,0.689,0.51,1.053,0.279c2.665-1.67,5.322-3.339,7.986-5.01c4.831-3.031,3.707-2.937,8.11-1.069
	c6.413,2.714,5.23,3.494,4.956,8.911c-0.168,3.375-1.619,7.065-2.379,10.374c-0.088,0.398,0.121,0.854,0.543,0.95
	c5.13,1.18,10.267,2.35,15.402,3.531c0.39,0.094,0.856-0.121,0.95-0.543c0.704-3.058,1.402-6.12,2.106-9.182
	c1.259-5.51,0.541-4.711,4.907-6.497c6.462-2.645,6.246-1.209,9.88,2.807c2.27,2.495,3.854,6.146,5.659,9.01
	c0.206,0.344,0.688,0.51,1.052,0.279c4.462-2.801,8.931-5.595,13.391-8.397c0.345-0.22,0.505-0.691,0.272-1.058
	c-1.664-2.658-3.335-5.316-5.003-7.98c-3.025-4.833-2.935-3.711-1.07-8.108c2.715-6.419,3.492-5.228,8.91-4.959
	c3.371,0.166,7.069,1.618,10.377,2.379c0.394,0.09,0.855-0.122,0.949-0.541c1.18-5.14,2.353-10.27,3.531-15.406
	C1413.077,590.741,1412.874,590.284,1412.454,590.181z M1349.087,575.561c5.786-5.227,14.016-6.627,20.79-2.305
	c8.766,5.579,10.318,18.316,2.909,25.742C1357.749,614.064,1334.559,591.686,1349.087,575.561z"/>
</svg>
